<svg width="82" height="81" viewBox="0 0 82 81" fill="none" xmlns="http://www.w3.org/2000/svg">
<path d="M74.1174 20.5176C73.4598 17.5626 71.499 15.0645 68.7847 13.7238L45.4286 2.18742C42.6372 0.808647 39.3628 0.80865 36.5714 2.18742L13.2153 13.7238C10.501 15.0645 8.54018 17.5626 7.88261 20.5176L2.02235 46.8528C1.37485 49.7625 2.05924 52.8095 3.88892 55.1628L20.1966 76.1379C22.0911 78.5747 25.0047 80 28.0913 80H53.9087C56.9953 80 59.9089 78.5747 61.8034 76.1379L78.1111 55.1628C79.9408 52.8095 80.6252 49.7625 79.9777 46.8528L74.1174 20.5176ZM53.5425 58.5531C51.6477 60.9843 48.7375 62.4059 45.655 62.4059H36.3507C33.265 62.4059 30.3521 60.9813 28.4575 58.5457L22.4537 50.8274C20.6232 48.4741 19.9381 45.4269 20.5853 42.5167L22.7672 32.7057C23.4247 29.749 25.3869 27.2497 28.1029 25.9092L36.5856 21.7226C39.3755 20.3456 42.6474 20.3456 45.4372 21.7226L53.92 25.9092C56.636 27.2497 58.5982 29.749 59.2557 32.7057L61.4363 42.5111C62.0843 45.4245 61.397 48.4751 59.5623 50.8292L53.5425 58.5531Z" fill="#361281" stroke="#FF2473" stroke-width="2" stroke-miterlimit="10"/>
</svg>
